# xmcd
#
# Track frame offsets:
#	150
#	14610
#	28334
#	45712
#	59640
#	72423
#	84934
#	101879
#	115036
#	135237
#	148550
#	162870
#	177080
#	187732
#	201062
#	217979
#	232252
#	250036
#	266175
#	276319
#
# Disc length: 3843 seconds
#
# Revision: 0
# Processed by: cddbd v1.4PL0 Copyright (c) Steve Scherf et al.
# Submitted via: dBpowerAMP V4.0
#
DISCID=260f0114
DTITLE=Foster And Allen - A Collection Of Love Songs
DYEAR=2002
DGENRE=
TTITLE0=After All These Years
TTITLE1=I Love you More and More Each Day
TTITLE2=Old Flames
TTITLE3=Nobody's Darling But Mine
TTITLE4=True Love
TTITLE5=Jacqueline Waltz
TTITLE6=Our Anniversary
TTITLE7=On My Mind
TTITLE8=Silver Threads Among The Gold
TTITLE9=Scarlet Ribbons
TTITLE10=I'll Be Your SweetHeart
TTITLE11=We Will Make Love
TTITLE12=When I Grow Too Old To Dream
TTITLE13=Tennessee Waltz
TTITLE14=If Those Lips Could Only Speak
TTITLE15=Seasons Of The Heart
TTITLE16=You Got Gold
TTITLE17=To Remind Me I Love You
TTITLE18=Turn Out The Lights
TTITLE19=Now Is The Hour
EXTD=
EXTT0=
EXTT1=
EXTT2=
EXTT3=
EXTT4=
EXTT5=
EXTT6=
EXTT7=
EXTT8=
EXTT9=
EXTT10=
EXTT11=
EXTT12=
EXTT13=
EXTT14=
EXTT15=
EXTT16=
EXTT17=
EXTT18=
EXTT19=
PLAYORDER=
